<svg width="53" height="49" viewBox="0 0 53 49" fill="none" xmlns="http://www.w3.org/2000/svg">
<path d="M4.63373 22.0042L4.6381 22.7777L9.59258 22.7498C9.95813 19.8233 11.1958 17.1359 13.0611 14.9179L9.53433 11.6992L8.94471 12.2496C7.03773 14.03 4.11559 11.3651 6.02389 9.5839C6.13068 9.4842 6.22727 9.39403 6.31496 9.31216C6.32658 9.30131 6.33719 9.29141 6.3484 9.28094C6.35871 9.27132 6.37245 9.25849 6.38801 9.24396C6.38144 9.25009 6.37467 9.25641 6.36891 9.26179C6.38447 9.24726 6.39983 9.23293 6.41478 9.21897C6.41893 9.2151 6.42347 9.21086 6.42751 9.20708C6.43944 9.19595 6.45136 9.18482 6.46287 9.17407C6.56966 9.07437 6.74112 8.91431 6.99834 8.67416C7.03633 8.6387 7.05573 8.62059 7.05856 8.61794C7.62363 8.0904 8.56939 7.20745 10.0936 5.7845C12.0031 4.0018 14.9267 6.66519 13.0144 8.45024L12.4248 9.00071L15.9515 12.2195C18.3331 10.4725 21.2303 9.29974 24.3962 8.92926L24.3704 4.35591L23.5324 4.36064C20.8173 4.37597 20.7931 0.582815 23.511 0.567466L29.2963 0.534794C32.0114 0.519461 32.0356 4.31262 29.3177 4.32797L28.4797 4.3327L28.5056 8.90605C31.6756 9.24084 34.5857 10.3808 36.9869 12.1007L40.4772 8.84229L39.8814 8.29851C37.9513 6.53741 40.8399 3.83679 42.7719 5.59995C43.0004 5.80848 43.1833 5.97545 43.3289 6.10831C43.7544 6.49667 44.7695 7.42311 46.8842 9.35314C48.8142 11.1143 45.9178 13.808 43.9937 12.0517L43.3979 11.5079L39.9077 14.7663C41.7981 16.9631 43.066 19.6364 43.4644 22.5585L48.419 22.5305L48.4147 21.757C48.4005 19.2508 52.5098 19.2249 52.5239 21.7338L52.5541 27.0741C52.5682 29.5803 48.459 29.6061 48.4448 27.0973L48.4404 26.3238L43.486 26.3517C43.1204 29.2782 41.8828 31.9656 40.0175 34.1836L43.5442 37.4023L44.1338 36.8518C46.0434 35.0692 48.9671 37.7325 47.0547 39.5176C46.9479 39.6173 46.8513 39.7075 46.7636 39.7893C46.2204 40.2964 46.0295 40.4747 46.02 40.4835C45.4549 41.0111 44.5092 41.894 42.985 43.317C41.0755 45.0997 38.1515 42.4366 40.0642 40.6513L40.6538 40.1008L37.1271 36.882C34.7455 38.629 31.8484 39.8018 28.6824 40.1722L28.7082 44.7456L29.5462 44.7409C32.2612 44.7255 32.2855 48.5187 29.5676 48.534L23.7822 48.5667C21.0672 48.582 21.0429 44.7889 23.7608 44.7735L24.5988 44.7688L24.573 40.1954C21.403 39.8607 18.4928 38.7207 16.0916 37.0008L12.6015 40.2592L13.1973 40.803C15.1273 42.5642 12.2309 45.2576 10.3068 43.5015C10.1972 43.4016 10.0982 43.3112 10.0086 43.2294C10.0225 43.2421 10.0013 43.2228 9.93077 43.1584C9.90341 43.1334 9.86839 43.1014 9.8248 43.0617C9.79938 43.0385 9.77181 43.0133 9.74037 42.9846C9.65186 42.9038 9.53762 42.7996 9.39551 42.6699C9.35375 42.6318 9.30944 42.5913 9.26258 42.5485C8.69179 42.0276 7.73581 41.1551 6.19455 39.7484C4.26452 37.9873 7.1531 35.2867 9.08507 37.0499L9.68088 37.5937L13.171 34.3353C11.2807 32.1385 10.0128 29.4653 9.6143 26.5431L4.65983 26.5711L4.6642 27.3446C4.67835 29.8508 0.569089 29.8766 0.554921 27.3678L0.524761 22.0275C0.510302 19.5212 4.61957 19.4955 4.63373 22.0042ZM30.2458 25.7449C32.7479 25.7308 34.7656 23.847 34.7526 21.5375C34.7395 19.228 32.7005 17.3671 30.1986 17.3812C27.6966 17.3954 25.6788 19.2792 25.6918 21.5887C25.7049 23.8982 27.7437 25.7591 30.2458 25.7449ZM22.8734 30.5656C24.4164 30.5569 25.6606 29.3953 25.6525 27.971C25.6445 26.5468 24.3872 25.3994 22.8443 25.4081C21.3014 25.4168 20.0572 26.5784 20.0652 28.0026C20.0733 29.4268 21.3305 30.5743 22.8734 30.5656Z" fill="white"/>
</svg>
